<mxfile host="app.diagrams.net" modified="2023-11-16T23:07:16.848Z" agent="Mozilla/5.0 (Macintosh; Intel Mac OS X 10_15_7) AppleWebKit/537.36 (KHTML, like Gecko) Chrome/119.0.0.0 Safari/537.36" etag="TuORIFGE4ZD5CKvVK9Nt" version="22.1.2" type="device">
  <diagram name="Page-1" id="NQ_TPl8LtCtkA9Zv2D3a">
    <mxGraphModel dx="511" dy="325" grid="1" gridSize="10" guides="1" tooltips="1" connect="1" arrows="1" fold="1" page="1" pageScale="1" pageWidth="850" pageHeight="1100" math="0" shadow="0">
      <root>
        <mxCell id="0" />
        <mxCell id="1" parent="0" />
        <mxCell id="rJTC5ROrvLIcPL6lRjZK-1" value="5a2dcc2" style="ellipse;whiteSpace=wrap;html=1;aspect=fixed;fillColor=#f8cecc;strokeColor=#b85450;" vertex="1" parent="1">
          <mxGeometry x="220" y="250" width="80" height="80" as="geometry" />
        </mxCell>
        <mxCell id="rJTC5ROrvLIcPL6lRjZK-3" style="edgeStyle=orthogonalEdgeStyle;rounded=0;orthogonalLoop=1;jettySize=auto;html=1;" edge="1" parent="1" source="rJTC5ROrvLIcPL6lRjZK-2" target="rJTC5ROrvLIcPL6lRjZK-1">
          <mxGeometry relative="1" as="geometry" />
        </mxCell>
        <mxCell id="rJTC5ROrvLIcPL6lRjZK-2" value="5406b60" style="ellipse;whiteSpace=wrap;html=1;aspect=fixed;fillColor=#f8cecc;strokeColor=#b85450;" vertex="1" parent="1">
          <mxGeometry x="360" y="250" width="80" height="80" as="geometry" />
        </mxCell>
        <mxCell id="rJTC5ROrvLIcPL6lRjZK-4" value="master" style="text;html=1;strokeColor=none;fillColor=none;align=center;verticalAlign=middle;whiteSpace=wrap;rounded=0;" vertex="1" parent="1">
          <mxGeometry x="140" y="275" width="60" height="30" as="geometry" />
        </mxCell>
        <mxCell id="rJTC5ROrvLIcPL6lRjZK-6" style="edgeStyle=orthogonalEdgeStyle;rounded=0;orthogonalLoop=1;jettySize=auto;html=1;entryX=0.5;entryY=1;entryDx=0;entryDy=0;" edge="1" parent="1" source="rJTC5ROrvLIcPL6lRjZK-5" target="rJTC5ROrvLIcPL6lRjZK-2">
          <mxGeometry relative="1" as="geometry" />
        </mxCell>
        <mxCell id="rJTC5ROrvLIcPL6lRjZK-5" value="2210919" style="ellipse;whiteSpace=wrap;html=1;aspect=fixed;" vertex="1" parent="1">
          <mxGeometry x="570" y="380" width="80" height="80" as="geometry" />
        </mxCell>
        <mxCell id="rJTC5ROrvLIcPL6lRjZK-7" value="release-2.13.0" style="text;html=1;strokeColor=none;fillColor=none;align=center;verticalAlign=middle;whiteSpace=wrap;rounded=0;" vertex="1" parent="1">
          <mxGeometry x="470" y="420" width="100" height="30" as="geometry" />
        </mxCell>
        <mxCell id="rJTC5ROrvLIcPL6lRjZK-9" style="edgeStyle=orthogonalEdgeStyle;rounded=0;orthogonalLoop=1;jettySize=auto;html=1;" edge="1" parent="1" source="rJTC5ROrvLIcPL6lRjZK-8">
          <mxGeometry relative="1" as="geometry">
            <mxPoint x="710" y="420" as="targetPoint" />
          </mxGeometry>
        </mxCell>
        <mxCell id="rJTC5ROrvLIcPL6lRjZK-8" value="31924e0" style="ellipse;whiteSpace=wrap;html=1;aspect=fixed;" vertex="1" parent="1">
          <mxGeometry x="750" y="380" width="80" height="80" as="geometry" />
        </mxCell>
        <mxCell id="rJTC5ROrvLIcPL6lRjZK-10" value="....." style="text;html=1;strokeColor=none;fillColor=none;align=center;verticalAlign=middle;whiteSpace=wrap;rounded=0;" vertex="1" parent="1">
          <mxGeometry x="650" y="400" width="60" height="30" as="geometry" />
        </mxCell>
        <mxCell id="rJTC5ROrvLIcPL6lRjZK-14" style="edgeStyle=orthogonalEdgeStyle;rounded=0;orthogonalLoop=1;jettySize=auto;html=1;exitX=0;exitY=0.5;exitDx=0;exitDy=0;" edge="1" parent="1" source="rJTC5ROrvLIcPL6lRjZK-11" target="rJTC5ROrvLIcPL6lRjZK-1">
          <mxGeometry relative="1" as="geometry" />
        </mxCell>
        <mxCell id="rJTC5ROrvLIcPL6lRjZK-11" value="a1282e1" style="ellipse;whiteSpace=wrap;html=1;aspect=fixed;" vertex="1" parent="1">
          <mxGeometry x="370" y="500" width="80" height="80" as="geometry" />
        </mxCell>
        <mxCell id="rJTC5ROrvLIcPL6lRjZK-15" value="....." style="text;html=1;strokeColor=none;fillColor=none;align=center;verticalAlign=middle;whiteSpace=wrap;rounded=0;" vertex="1" parent="1">
          <mxGeometry x="470" y="525" width="60" height="30" as="geometry" />
        </mxCell>
        <mxCell id="rJTC5ROrvLIcPL6lRjZK-17" style="edgeStyle=orthogonalEdgeStyle;rounded=0;orthogonalLoop=1;jettySize=auto;html=1;exitX=0;exitY=0.5;exitDx=0;exitDy=0;" edge="1" parent="1" source="rJTC5ROrvLIcPL6lRjZK-16">
          <mxGeometry relative="1" as="geometry">
            <mxPoint x="550" y="540" as="targetPoint" />
          </mxGeometry>
        </mxCell>
        <mxCell id="rJTC5ROrvLIcPL6lRjZK-16" value="f9b2039" style="ellipse;whiteSpace=wrap;html=1;aspect=fixed;fillColor=#f8cecc;strokeColor=#b85450;" vertex="1" parent="1">
          <mxGeometry x="580" y="500" width="80" height="80" as="geometry" />
        </mxCell>
        <mxCell id="rJTC5ROrvLIcPL6lRjZK-18" value="v2.11.0" style="text;html=1;strokeColor=none;fillColor=none;align=center;verticalAlign=middle;whiteSpace=wrap;rounded=0;" vertex="1" parent="1">
          <mxGeometry x="230" y="210" width="60" height="30" as="geometry" />
        </mxCell>
        <mxCell id="rJTC5ROrvLIcPL6lRjZK-19" value="v2.12.0" style="text;html=1;strokeColor=none;fillColor=none;align=center;verticalAlign=middle;whiteSpace=wrap;rounded=0;" vertex="1" parent="1">
          <mxGeometry x="360" y="210" width="60" height="30" as="geometry" />
        </mxCell>
        <mxCell id="rJTC5ROrvLIcPL6lRjZK-20" value="main-release-jan-2024" style="text;html=1;strokeColor=none;fillColor=none;align=center;verticalAlign=middle;whiteSpace=wrap;rounded=0;" vertex="1" parent="1">
          <mxGeometry x="90" y="520" width="140" height="30" as="geometry" />
        </mxCell>
        <mxCell id="rJTC5ROrvLIcPL6lRjZK-63" style="edgeStyle=orthogonalEdgeStyle;rounded=0;orthogonalLoop=1;jettySize=auto;html=1;entryX=1;entryY=0.5;entryDx=0;entryDy=0;" edge="1" parent="1" source="rJTC5ROrvLIcPL6lRjZK-62" target="rJTC5ROrvLIcPL6lRjZK-16">
          <mxGeometry relative="1" as="geometry" />
        </mxCell>
        <mxCell id="rJTC5ROrvLIcPL6lRjZK-62" value="xxxx" style="ellipse;whiteSpace=wrap;html=1;aspect=fixed;" vertex="1" parent="1">
          <mxGeometry x="720" y="500" width="80" height="80" as="geometry" />
        </mxCell>
        <mxCell id="rJTC5ROrvLIcPL6lRjZK-65" style="edgeStyle=orthogonalEdgeStyle;rounded=0;orthogonalLoop=1;jettySize=auto;html=1;entryX=0.5;entryY=1;entryDx=0;entryDy=0;" edge="1" parent="1" source="rJTC5ROrvLIcPL6lRjZK-64" target="rJTC5ROrvLIcPL6lRjZK-15">
          <mxGeometry relative="1" as="geometry" />
        </mxCell>
        <mxCell id="rJTC5ROrvLIcPL6lRjZK-64" value="aaaa" style="ellipse;whiteSpace=wrap;html=1;aspect=fixed;" vertex="1" parent="1">
          <mxGeometry x="550" y="650" width="80" height="80" as="geometry" />
        </mxCell>
        <mxCell id="rJTC5ROrvLIcPL6lRjZK-67" style="edgeStyle=orthogonalEdgeStyle;rounded=0;orthogonalLoop=1;jettySize=auto;html=1;entryX=1;entryY=0.5;entryDx=0;entryDy=0;" edge="1" parent="1" source="rJTC5ROrvLIcPL6lRjZK-66" target="rJTC5ROrvLIcPL6lRjZK-64">
          <mxGeometry relative="1" as="geometry" />
        </mxCell>
        <mxCell id="rJTC5ROrvLIcPL6lRjZK-66" value="dfgdf" style="ellipse;whiteSpace=wrap;html=1;aspect=fixed;fontStyle=1" vertex="1" parent="1">
          <mxGeometry x="680" y="650" width="80" height="80" as="geometry" />
        </mxCell>
      </root>
    </mxGraphModel>
  </diagram>
</mxfile>
